<?xml version="1.0" encoding="us-ascii" standalone="no"?><svg xmlns="http://www.w3.org/2000/svg" xmlns:xlink="http://www.w3.org/1999/xlink" contentStyleType="text/css" height="602px" preserveAspectRatio="none" style="width:434px;height:602px;background:#FFFFFF;" version="1.1" viewBox="0 0 434 602" width="434px" zoomAndPan="magnify"><defs/><g><!--class Patient--><g id="elem_Patient"><rect codeLine="2" fill="#F1F1F1" height="238.6792" id="Patient" rx="2.5" ry="2.5" style="stroke:#181818;stroke-width:0.5;" width="189" x="226.5" y="153"/><ellipse cx="293.25" cy="169" fill="#ADD1B2" rx="11" ry="11" style="stroke:#181818;stroke-width:1.0;"/><path d="M289.6094,175.5 L289.6094,163.3438 L297.2656,163.3438 L297.2656,165.4844 L292,165.4844 L292,168.125 L297.0156,168.125 L297.0156,170.2656 L292,170.2656 L292,173.375 L297.2656,173.375 L297.2656,175.5 L289.6094,175.5 Z " fill="#000000"/><text fill="#000000" font-family="sans-serif" font-size="14" lengthAdjust="spacing" textLength="47" x="313.75" y="174.432">Patient</text><line style="stroke:#181818;stroke-width:0.5;" x1="227.5" x2="414.5" y1="185" y2="185"/><text fill="#000000" font-family="sans-serif" font-size="14" lengthAdjust="spacing" textLength="177" x="232.5" y="203.9659">patient_id : INTEGER  &#171;PK&#187;</text><line style="stroke:#181818;stroke-width:1.0;" x1="227.5" x2="414.5" y1="212.0679" y2="212.0679"/><text fill="#000000" font-family="sans-serif" font-size="14" lengthAdjust="spacing" textLength="170" x="232.5" y="231.0339">first_name : VARCHAR(30)</text><text fill="#000000" font-family="sans-serif" font-size="14" lengthAdjust="spacing" textLength="167" x="232.5" y="250.1018">last_name : VARCHAR(30)</text><text fill="#000000" font-family="sans-serif" font-size="14" lengthAdjust="spacing" textLength="114" x="232.5" y="269.1697">gender : CHAR(1)</text><text fill="#000000" font-family="sans-serif" font-size="14" lengthAdjust="spacing" textLength="116" x="232.5" y="288.2376">birth_date : DATE</text><text fill="#000000" font-family="sans-serif" font-size="14" lengthAdjust="spacing" textLength="122" x="232.5" y="307.3055">city : VARCHAR(30)</text><text fill="#000000" font-family="sans-serif" font-size="14" lengthAdjust="spacing" textLength="176" x="232.5" y="326.3734">province_id : CHAR(2) &#171;FK&#187;</text><text fill="#000000" font-family="sans-serif" font-size="14" lengthAdjust="spacing" textLength="157" x="232.5" y="345.4414">allergies : VARCHAR(30)</text><text fill="#000000" font-family="sans-serif" font-size="14" lengthAdjust="spacing" textLength="145" x="232.5" y="364.5093">height : DECIMAL(3,0)</text><text fill="#000000" font-family="sans-serif" font-size="14" lengthAdjust="spacing" textLength="147" x="232.5" y="383.5772">weight : DECIMAL(3,0)</text></g><!--class Doctor--><g id="elem_Doctor"><rect codeLine="16" fill="#F1F1F1" height="124.2717" id="Doctor" rx="2.5" ry="2.5" style="stroke:#181818;stroke-width:0.5;" width="184" x="7" y="210.5"/><ellipse cx="72.75" cy="226.5" fill="#ADD1B2" rx="11" ry="11" style="stroke:#181818;stroke-width:1.0;"/><path d="M69.1094,233 L69.1094,220.8438 L76.7656,220.8438 L76.7656,222.9844 L71.5,222.9844 L71.5,225.625 L76.5156,225.625 L76.5156,227.7656 L71.5,227.7656 L71.5,230.875 L76.7656,230.875 L76.7656,233 L69.1094,233 Z " fill="#000000"/><text fill="#000000" font-family="sans-serif" font-size="14" lengthAdjust="spacing" textLength="44" x="93.25" y="231.932">Doctor</text><line style="stroke:#181818;stroke-width:0.5;" x1="8" x2="190" y1="242.5" y2="242.5"/><text fill="#000000" font-family="sans-serif" font-size="14" lengthAdjust="spacing" textLength="172" x="13" y="261.4659">doctor_id : INTEGER  &#171;PK&#187;</text><line style="stroke:#181818;stroke-width:1.0;" x1="8" x2="190" y1="269.5679" y2="269.5679"/><text fill="#000000" font-family="sans-serif" font-size="14" lengthAdjust="spacing" textLength="170" x="13" y="288.5339">first_name : VARCHAR(30)</text><text fill="#000000" font-family="sans-serif" font-size="14" lengthAdjust="spacing" textLength="167" x="13" y="307.6018">last_name : VARCHAR(30)</text><text fill="#000000" font-family="sans-serif" font-size="14" lengthAdjust="spacing" textLength="158" x="13" y="326.6697">specialty : VARCHAR(25)</text></g><!--class Province--><g id="elem_Province"><rect codeLine="24" fill="#F1F1F1" height="86.1358" id="Province" rx="2.5" ry="2.5" style="stroke:#181818;stroke-width:0.5;" width="213" x="214.5" y="7"/><ellipse cx="288.25" cy="23" fill="#ADD1B2" rx="11" ry="11" style="stroke:#181818;stroke-width:1.0;"/><path d="M284.6094,29.5 L284.6094,17.3438 L292.2656,17.3438 L292.2656,19.4844 L287,19.4844 L287,22.125 L292.0156,22.125 L292.0156,24.2656 L287,24.2656 L287,27.375 L292.2656,27.375 L292.2656,29.5 L284.6094,29.5 Z " fill="#000000"/><text fill="#000000" font-family="sans-serif" font-size="14" lengthAdjust="spacing" textLength="57" x="308.75" y="28.432">Province</text><line style="stroke:#181818;stroke-width:0.5;" x1="215.5" x2="426.5" y1="39" y2="39"/><text fill="#000000" font-family="sans-serif" font-size="14" lengthAdjust="spacing" textLength="181" x="220.5" y="57.9659">province_id : CHAR(2)  &#171;PK&#187;</text><line style="stroke:#181818;stroke-width:1.0;" x1="215.5" x2="426.5" y1="66.0679" y2="66.0679"/><text fill="#000000" font-family="sans-serif" font-size="14" lengthAdjust="spacing" textLength="201" x="220.5" y="85.0339">province_name : VARCHAR(30)</text></g><!--class Admission--><g id="elem_Admission"><rect codeLine="30" fill="#F1F1F1" height="143.3396" id="Admission" rx="2.5" ry="2.5" style="stroke:#181818;stroke-width:0.5;" width="251" x="84.5" y="452"/><ellipse cx="170.75" cy="468" fill="#ADD1B2" rx="11" ry="11" style="stroke:#181818;stroke-width:1.0;"/><path d="M167.1094,474.5 L167.1094,462.3438 L174.7656,462.3438 L174.7656,464.4844 L169.5,464.4844 L169.5,467.125 L174.5156,467.125 L174.5156,469.2656 L169.5,469.2656 L169.5,472.375 L174.7656,472.375 L174.7656,474.5 L167.1094,474.5 Z " fill="#000000"/><text fill="#000000" font-family="sans-serif" font-size="14" lengthAdjust="spacing" textLength="70" x="191.25" y="473.432">Admission</text><line style="stroke:#181818;stroke-width:0.5;" x1="85.5" x2="334.5" y1="484" y2="484"/><text fill="#000000" font-family="sans-serif" font-size="14" lengthAdjust="spacing" textLength="177" x="90.5" y="502.9659">patient_id : INTEGER  &#171;PK&#187;</text><line style="stroke:#181818;stroke-width:1.0;" x1="85.5" x2="334.5" y1="511.0679" y2="511.0679"/><text fill="#000000" font-family="sans-serif" font-size="14" lengthAdjust="spacing" textLength="152" x="90.5" y="530.0339">admission_date : DATE</text><text fill="#000000" font-family="sans-serif" font-size="14" lengthAdjust="spacing" textLength="150" x="90.5" y="549.1018">discharge_date : DATE</text><text fill="#000000" font-family="sans-serif" font-size="14" lengthAdjust="spacing" textLength="164" x="90.5" y="568.1697">diagnosis : VARCHAR(50)</text><text fill="#000000" font-family="sans-serif" font-size="14" lengthAdjust="spacing" textLength="239" x="90.5" y="587.2376">attending_doctor_id : INTEGER &#171;FK&#187;</text></g><!--link Patient to Admission--><g id="link_Patient_Admission"><path codeLine="39" d="M264.69,399.83 C257.9,415.05 251.13,430.24 244.78,444.49 " fill="none" id="Patient-Admission" style="stroke:#181818;stroke-width:1.0;stroke-dasharray:7.0,7.0;"/><line style="stroke:#181818;stroke-width:1.0;" x1="262.8173" x2="270.123" y1="394.193" y2="397.4527"/><line style="stroke:#181818;stroke-width:1.0;" x1="261.5949" x2="268.9006" y1="396.9327" y2="400.1924"/><line style="stroke:#181818;stroke-width:1.0;" x1="264.8403" x2="268.1" y1="399.4758" y2="392.17"/><line style="stroke:#181818;stroke-width:1.0;" x1="244.7597" x2="246.9793" y1="444.5342" y2="454.2848"/><line style="stroke:#181818;stroke-width:1.0;" x1="244.7597" x2="236.0207" y1="444.5342" y2="449.3952"/><line style="stroke:#181818;stroke-width:1.0;" x1="244.7597" x2="241.5" y1="444.5342" y2="451.84"/><line style="stroke:#181818;stroke-width:1.0;" x1="249.2275" x2="241.9218" y1="444.3376" y2="441.0779"/></g><!--link Doctor to Admission--><g id="link_Doctor_Admission"><path codeLine="40" d="M129.69,342.34 C143.81,374.01 160.62,411.74 175.21,444.47 " fill="none" id="Doctor-Admission" style="stroke:#181818;stroke-width:1.0;"/><line style="stroke:#181818;stroke-width:1.0;" x1="124.277" x2="131.5827" y1="340.0127" y2="336.753"/><line style="stroke:#181818;stroke-width:1.0;" x1="125.4994" x2="132.8051" y1="342.7524" y2="339.4927"/><line style="stroke:#181818;stroke-width:1.0;" x1="129.5597" x2="126.3" y1="342.0358" y2="334.73"/><line style="stroke:#181818;stroke-width:1.0;" x1="175.2203" x2="183.9593" y1="444.4942" y2="449.3552"/><line style="stroke:#181818;stroke-width:1.0;" x1="175.2203" x2="173.0007" y1="444.4942" y2="454.2448"/><line style="stroke:#181818;stroke-width:1.0;" x1="175.2203" x2="178.48" y1="444.4942" y2="451.8"/><ellipse cx="172.7755" cy="439.0149" fill="none" rx="4" ry="4" style="stroke:#181818;stroke-width:1.0;"/></g><!--link Province to Patient--><g id="link_Province_Patient"><path codeLine="41" d="M321,101.6 C321,114.64 321,129.27 321,144.34 " fill="none" id="Province-Patient" style="stroke:#181818;stroke-width:1.0;"/><line style="stroke:#181818;stroke-width:1.0;" x1="317" x2="325" y1="97.25" y2="97.25"/><line style="stroke:#181818;stroke-width:1.0;" x1="317" x2="325" y1="100.25" y2="100.25"/><line style="stroke:#181818;stroke-width:1.0;" x1="321" x2="321" y1="101.25" y2="93.25"/><line style="stroke:#181818;stroke-width:1.0;" x1="321" x2="327" y1="144.74" y2="152.74"/><line style="stroke:#181818;stroke-width:1.0;" x1="321" x2="315" y1="144.74" y2="152.74"/><line style="stroke:#181818;stroke-width:1.0;" x1="321" x2="321" y1="144.74" y2="152.74"/><ellipse cx="321" cy="138.74" fill="none" rx="4" ry="4" style="stroke:#181818;stroke-width:1.0;"/></g><!--SRC=[hLB9QiCm4BthAtICeGvjGYub14pYjg4BneHUZM9DvG57Cf9eAL7_lVAIn0u-zD2RUBEzHI0jsc-QC8iWBJsIgdrboEaztRxjuiSufNIvJ9vNAnA6v0EriPba1_3rzoXTFqNfP7uRa9ADum8a1-t11haBo1wrBJBERDsvYNOnoMiAmwbAgq-KERGy6dWMU1eFDGrMbg05WhaQAW15OUkjyNhx6hrCvZSU_Hf5VmY1Llj6vLPfBvqtZ_zJRYh8aPK3RRD5_tJIgQnz7nNSEtzk6BbqsHZn0ng3IluXIdRg7OJ1qUG5qmAkK2QaCjYtVE4lCsjzlYX5DkPUbvUdT_fWpasdxdYXIJhtdGj3rSVFrdILRW4Xlm00]--></g></svg>